<?xml version="1.0" standalone="no"?>
<!DOCTYPE svg PUBLIC "-//W3C//DTD SVG 20010904//EN"
 "http://www.w3.org/TR/2001/REC-SVG-20010904/DTD/svg10.dtd">
<svg version="1.0" xmlns="http://www.w3.org/2000/svg"
 width="1024.000000pt" height="1024.000000pt" viewBox="0 0 1024.000000 1024.000000"
 preserveAspectRatio="xMidYMid meet">

<g transform="translate(0.000000,1024.000000) scale(0.100000,-0.100000)"
fill="#000000" stroke="none">
<path d="M5320 8332 c-188 -110 -327 -219 -524 -412 -257 -252 -444 -481 -628
-773 l-83 -130 -150 -98 c-82 -53 -184 -121 -225 -151 -425 -302 -904 -800
-1149 -1195 -43 -69 -48 -83 -33 -83 26 0 277 39 327 50 22 5 49 10 59 10 19
0 19 -1 -1 -22 -63 -70 -248 -424 -326 -628 -121 -311 -183 -593 -222 -995
-18 -189 -19 -255 -4 -255 10 0 319 191 528 327 l114 75 26 -34 c74 -93 255
-305 340 -397 96 -103 333 -325 446 -418 302 -247 657 -470 1070 -673 201 -99
278 -133 580 -261 234 -98 455 -182 455 -172 0 3 -40 80 -89 172 -128 241
-341 648 -341 654 0 2 72 8 160 12 88 4 160 9 160 10 0 2 -56 116 -124 253
-127 253 -199 412 -235 518 -29 86 -61 253 -61 317 0 72 23 188 50 257 57 144
221 305 405 397 132 67 93 64 749 53 643 -12 642 -12 756 42 118 56 313 270
456 501 63 100 150 271 156 301 2 17 -43 41 -302 162 -330 155 -421 198 -753
354 l-218 103 -47 66 c-52 71 -118 180 -202 331 -88 159 -93 164 -307 270
-103 51 -312 151 -463 221 l-275 128 4 576 c3 347 0 575 -5 575 -5 0 -38 -17
-74 -38z m-179 -484 c-5 -13 -10 -198 -12 -412 l-4 -389 105 -47 c58 -27 182
-83 275 -125 183 -83 570 -272 622 -304 31 -20 46 -42 175 -266 88 -152 146
-233 200 -280 43 -36 251 -142 728 -370 229 -109 371 -177 378 -181 7 -4 -34
-73 -95 -162 -79 -114 -212 -252 -272 -282 l-45 -22 -575 8 c-918 14 -1190 12
-1289 -9 -141 -30 -198 -53 -289 -113 -172 -114 -455 -425 -709 -781 -113
-157 -141 -203 -124 -203 14 0 203 129 360 246 74 56 221 178 325 273 268 242
394 321 541 337 l59 7 -40 -30 c-65 -48 -174 -173 -220 -251 -73 -124 -125
-317 -125 -462 0 -159 88 -460 201 -688 l66 -134 -158 4 c-88 2 -159 0 -159
-4 0 -15 271 -562 287 -580 24 -26 7 -22 -97 22 -232 101 -647 328 -870 475
-457 303 -852 675 -1171 1103 -56 76 -110 145 -121 154 -17 16 -27 11 -191
-89 -94 -58 -185 -115 -201 -126 l-28 -20 7 54 c11 83 69 300 118 444 147 425
355 788 655 1144 70 82 72 86 48 89 -26 3 -313 -41 -373 -58 -18 -4 -33 -7
-33 -5 0 4 25 32 151 172 206 228 532 497 834 689 203 128 196 122 265 235
169 277 394 564 621 792 92 92 172 167 178 167 7 0 7 -8 2 -22z"/>
<path d="M5395 6231 c10 -10 392 -202 552 -277 l93 -43 122 20 c68 10 140 19
160 19 20 0 39 4 42 9 7 10 -322 233 -375 255 -43 17 -610 34 -594 17z"/>
</g>
</svg>
